<svg width="50" height="31" viewBox="0 0 50 31" fill="none" xmlns="http://www.w3.org/2000/svg">
<path d="M25 6.75C29.1406 6.75 32.5 10.7344 32.5 15.5C32.5 20.3438 29.1406 24.25 25 24.25C20.7812 24.25 17.5 20.3438 17.5 15.5C17.5 10.7344 20.7812 6.75 25 6.75ZM28.125 19.875V18.625C28.125 18.3125 27.8125 18 27.5 18H26.25V11.125C26.25 10.8125 25.9375 10.5 25.625 10.5H24.5312C24.1406 10.5 23.75 10.6562 23.5156 10.8906L22.2656 11.6719C22.1094 11.75 22.0312 11.9844 22.0312 12.1406C22.0312 12.2969 22.0312 12.4531 22.1094 12.5312L22.8125 13.5469C22.8906 13.7031 23.125 13.8594 23.3594 13.8594C23.4375 13.8594 23.5938 13.7812 23.6719 13.7031H23.75V18H22.5C22.1094 18 21.875 18.3125 21.875 18.625V19.875C21.875 20.2656 22.1094 20.5 22.5 20.5H27.5C27.8125 20.5 28.125 20.2656 28.125 19.875ZM47.5 0.5C48.8281 0.5 50 1.67188 50 3V28C50 29.4062 48.8281 30.5 47.5 30.5H2.5C1.09375 30.5 0 29.4062 0 28V3C0 1.67188 1.09375 0.5 2.5 0.5H47.5ZM46.25 21.75V9.25C43.4375 9.25 41.25 7.0625 41.25 4.25H8.75C8.75 7.0625 6.48438 9.25 3.75 9.25V21.75C6.48438 21.75 8.75 24.0156 8.75 26.75H41.25C41.25 24.0156 43.4375 21.75 46.25 21.75Z" fill="#DF0303"/>
</svg>
