<svg width="50" height="49" viewBox="0 0 50 49" fill="none" xmlns="http://www.w3.org/2000/svg">
<path d="M25 34.9463C28.7656 34.9463 31.8182 30.717 31.8182 25.4999C31.8182 20.2828 28.7656 16.0535 25 16.0535C21.2344 16.0535 18.1818 20.2828 18.1818 25.4999C18.1818 30.717 21.2344 34.9463 25 34.9463Z" fill="#DF0303"/>
<path d="M17.1477 14.1468L14.0012 9.59839C10.9807 13.61 9.09093 19.2448 9.09093 25.4999C9.09093 31.755 10.9807 37.3898 14.0012 41.4014L17.1477 36.8529C14.9887 33.9844 13.6364 29.9602 13.6364 25.4999C13.6364 21.0396 14.9887 17.0138 17.1477 14.1468Z" fill="#DF0303"/>
<path d="M35.9989 9.59839L32.8523 14.1468C35.0114 17.0154 36.3636 21.0396 36.3636 25.4999C36.3636 29.9602 35.0114 33.9844 32.8523 36.8529L35.9989 41.4014C39.0193 37.3898 40.9091 31.755 40.9091 25.4999C40.9091 19.2448 39.0193 13.61 35.9989 9.59839Z" fill="#DF0303"/>
<path d="M10.8648 5.06578L7.70682 0.5C2.96023 6.80392 0 15.671 0 25.5C0 35.329 2.96023 44.1961 7.70682 50.5L10.8648 45.9342C6.97954 40.7733 4.54545 33.5295 4.54545 25.5C4.54545 17.4705 6.97954 10.2267 10.8648 5.06578Z" fill="#DF0303"/>
<path d="M42.2932 0.5L39.1352 5.06578C43.0205 10.2267 45.4546 17.4705 45.4546 25.5C45.4546 33.5295 43.0205 40.7733 39.1352 45.9342L42.2932 50.5C47.0398 44.1961 50 35.329 50 25.5C50 15.671 47.0398 6.80392 42.2932 0.5Z" fill="#DF0303"/>
</svg>
