<svg width="23" height="21" viewBox="0 0 23 21" fill="none" xmlns="http://www.w3.org/2000/svg">
<path d="M0.549744 10.5C0.549744 8.52219 1.1978 6.58879 2.41196 4.9443C3.62612 3.29981 5.35185 2.01809 7.37092 1.26121C9.38999 0.504333 11.6117 0.306299 13.7552 0.692152C15.8986 1.078 17.8675 2.03041 19.4128 3.42894C20.9581 4.82746 22.0105 6.60929 22.4369 8.5491C22.8632 10.4889 22.6444 12.4996 21.8081 14.3268C20.9718 16.1541 19.5555 17.7159 17.7384 18.8147C15.9212 19.9135 13.7849 20.5 11.5995 20.5C8.6689 20.5 5.85836 19.4464 3.78613 17.5711C1.71391 15.6957 0.549744 13.1522 0.549744 10.5ZM9.30112 14.77C9.39103 14.7666 9.47849 14.7425 9.55527 14.7L16.0194 10.85C16.0832 10.8117 16.1355 10.7597 16.1717 10.6986C16.208 10.6375 16.2269 10.5693 16.2269 10.5C16.2269 10.4307 16.208 10.3625 16.1717 10.3014C16.1355 10.2403 16.0832 10.1883 16.0194 10.15L9.55527 6.3C9.48342 6.26126 9.40134 6.2408 9.3177 6.2408C9.23406 6.2408 9.15198 6.26126 9.08013 6.3C9.00657 6.33355 8.94483 6.38503 8.90187 6.44864C8.85892 6.51225 8.83646 6.58546 8.83704 6.66V14.36C8.83646 14.4346 8.85892 14.5078 8.90187 14.5714C8.94483 14.635 9.00657 14.6865 9.08013 14.72C9.14683 14.7558 9.22365 14.7732 9.30112 14.77Z" fill="black"/>
</svg>
