<svg width="21" height="21" viewBox="0 0 21 21" fill="none" xmlns="http://www.w3.org/2000/svg">
<g clip-path="url(#clip0_53_7)">
<path d="M0.839966 10.5C0.839966 8.52219 1.42646 6.58879 2.52527 4.9443C3.62408 3.29981 5.18587 2.01809 7.01313 1.26121C8.84039 0.504333 10.8511 0.306299 12.7909 0.692152C14.7307 1.078 16.5125 2.03041 17.911 3.42894C19.3096 4.82746 20.262 6.60929 20.6478 8.5491C21.0337 10.4889 20.8356 12.4996 20.0788 14.3268C19.3219 16.1541 18.0402 17.7159 16.3957 18.8147C14.7512 19.9135 12.8178 20.5 10.84 20.5C8.1878 20.5 5.64426 19.4464 3.7689 17.5711C1.89353 15.6957 0.839966 13.1522 0.839966 10.5ZM8.75997 14.77C8.84133 14.7666 8.92048 14.7425 8.98997 14.7L14.84 10.85C14.8977 10.8117 14.9451 10.7597 14.9779 10.6986C15.0107 10.6375 15.0278 10.5693 15.0278 10.5C15.0278 10.4307 15.0107 10.3625 14.9779 10.3014C14.9451 10.2403 14.8977 10.1883 14.84 10.15L8.98997 6.3C8.92494 6.26126 8.85066 6.2408 8.77497 6.2408C8.69927 6.2408 8.62499 6.26126 8.55997 6.3C8.49339 6.33355 8.43752 6.38503 8.39864 6.44864C8.35977 6.51225 8.33945 6.58546 8.33997 6.66V14.36C8.33945 14.4346 8.35977 14.5078 8.39864 14.5714C8.43752 14.635 8.49339 14.6865 8.55997 14.72C8.62033 14.7558 8.68985 14.7732 8.75997 14.77Z" fill="black"/>
</g>
<defs>
<clipPath id="clip0_53_7">
<rect width="20" height="20" fill="white" transform="translate(0.839966 0.5)"/>
</clipPath>
</defs>
</svg>
